<svg width="760" height="500" viewBox="0 0 760 500" xmlns="http://www.w3.org/2000/svg" role="img">
<title>Synergy Enterprises HR transformation stakeholder map</title>
<desc>Hierarchical stakeholder map showing the Executive Sponsor at the top, flowing down through the CHRO, into four parallel functions (HR Operations, IT Leadership, Compliance, and Data Privacy and Legal), converging at the Project Manager, then branching to HR Users, System Vendors, Regional HR Teams, and Regional Works Councils, ending at Employees.</desc>
<defs>
<marker id="arrow" viewBox="0 0 10 10" refX="8" refY="5" markerWidth="6" markerHeight="6" orient="auto-start-reverse"><path d="M2 1L8 5L2 9" fill="none" stroke="#1f2a44" stroke-width="1.5" stroke-linecap="round" stroke-linejoin="round"/></marker>
</defs>
<rect width="760" height="500" fill="#ffffff"/>

<g>
<rect x="290" y="20" width="180" height="44" rx="8" fill="#eef0fa" stroke="#5b4b8a" stroke-width="0.5"/>
<text x="380" y="42" text-anchor="middle" dominant-baseline="central" font-family="Arial, sans-serif" font-size="14" font-weight="600" fill="#1f2a44">Executive Sponsor</text>
</g>
<line x1="380" y1="64" x2="380" y2="100" stroke="#1f2a44" stroke-width="1" marker-end="url(#arrow)"/>

<g>
<rect x="280" y="100" width="200" height="44" rx="8" fill="#eef0fa" stroke="#5b4b8a" stroke-width="0.5"/>
<text x="380" y="122" text-anchor="middle" dominant-baseline="central" font-family="Arial, sans-serif" font-size="14" font-weight="600" fill="#1f2a44">CHRO / HR director</text>
</g>
<line x1="380" y1="144" x2="380" y2="166" stroke="#999" stroke-width="0.5" opacity="0.6"/>
<line x1="90" y1="166" x2="670" y2="166" stroke="#999" stroke-width="0.5" opacity="0.6"/>
<line x1="90" y1="166" x2="90" y2="186" stroke="#1f2a44" stroke-width="1" marker-end="url(#arrow)"/>
<line x1="290" y1="166" x2="290" y2="186" stroke="#1f2a44" stroke-width="1" marker-end="url(#arrow)"/>
<line x1="490" y1="166" x2="490" y2="186" stroke="#1f2a44" stroke-width="1" marker-end="url(#arrow)"/>
<line x1="670" y1="166" x2="670" y2="186" stroke="#1f2a44" stroke-width="1" marker-end="url(#arrow)"/>

<g>
<rect x="20" y="186" width="140" height="56" rx="8" fill="#e6f5f2" stroke="#2f8f7d" stroke-width="0.5"/>
<text x="90" y="204" text-anchor="middle" dominant-baseline="central" font-family="Arial, sans-serif" font-size="12" font-weight="600" fill="#1f2a44">HR operations</text>
<text x="90" y="222" text-anchor="middle" dominant-baseline="central" font-family="Arial, sans-serif" font-size="10" fill="#555">Process owners</text>
</g>
<g>
<rect x="220" y="186" width="140" height="56" rx="8" fill="#e6f5f2" stroke="#2f8f7d" stroke-width="0.5"/>
<text x="290" y="204" text-anchor="middle" dominant-baseline="central" font-family="Arial, sans-serif" font-size="12" font-weight="600" fill="#1f2a44">IT leadership</text>
<text x="290" y="222" text-anchor="middle" dominant-baseline="central" font-family="Arial, sans-serif" font-size="10" fill="#555">Technical delivery</text>
</g>
<g>
<rect x="420" y="186" width="140" height="56" rx="8" fill="#e6f5f2" stroke="#2f8f7d" stroke-width="0.5"/>
<text x="490" y="204" text-anchor="middle" dominant-baseline="central" font-family="Arial, sans-serif" font-size="12" font-weight="600" fill="#1f2a44">Compliance team</text>
<text x="490" y="222" text-anchor="middle" dominant-baseline="central" font-family="Arial, sans-serif" font-size="10" fill="#555">Regulatory oversight</text>
</g>
<g>
<rect x="600" y="186" width="140" height="56" rx="8" fill="#e6f5f2" stroke="#2f8f7d" stroke-width="0.5"/>
<text x="670" y="204" text-anchor="middle" dominant-baseline="central" font-family="Arial, sans-serif" font-size="12" font-weight="600" fill="#1f2a44">Data privacy &amp; legal</text>
<text x="670" y="222" text-anchor="middle" dominant-baseline="central" font-family="Arial, sans-serif" font-size="10" fill="#555">Cross-border governance</text>
</g>

<line x1="90" y1="242" x2="90" y2="266" stroke="#999" stroke-width="0.5" opacity="0.6"/>
<line x1="290" y1="242" x2="290" y2="266" stroke="#999" stroke-width="0.5" opacity="0.6"/>
<line x1="490" y1="242" x2="490" y2="266" stroke="#999" stroke-width="0.5" opacity="0.6"/>
<line x1="670" y1="242" x2="670" y2="266" stroke="#999" stroke-width="0.5" opacity="0.6"/>
<line x1="90" y1="266" x2="670" y2="266" stroke="#999" stroke-width="0.5" opacity="0.6"/>
<line x1="380" y1="266" x2="380" y2="286" stroke="#1f2a44" stroke-width="1" marker-end="url(#arrow)"/>

<g>
<rect x="290" y="286" width="180" height="44" rx="8" fill="#eef0fa" stroke="#5b4b8a" stroke-width="0.5"/>
<text x="380" y="308" text-anchor="middle" dominant-baseline="central" font-family="Arial, sans-serif" font-size="14" font-weight="600" fill="#1f2a44">Project manager</text>
</g>
<line x1="380" y1="330" x2="380" y2="352" stroke="#999" stroke-width="0.5" opacity="0.6"/>
<line x1="90" y1="352" x2="670" y2="352" stroke="#999" stroke-width="0.5" opacity="0.6"/>
<line x1="90" y1="352" x2="90" y2="372" stroke="#1f2a44" stroke-width="1" marker-end="url(#arrow)"/>
<line x1="290" y1="352" x2="290" y2="372" stroke="#1f2a44" stroke-width="1" marker-end="url(#arrow)"/>
<line x1="490" y1="352" x2="490" y2="372" stroke="#1f2a44" stroke-width="1" marker-end="url(#arrow)"/>
<line x1="670" y1="352" x2="670" y2="372" stroke="#1f2a44" stroke-width="1" marker-end="url(#arrow)"/>

<g>
<rect x="20" y="372" width="140" height="44" rx="8" fill="#fdecea" stroke="#c1664f" stroke-width="0.5"/>
<text x="90" y="394" text-anchor="middle" dominant-baseline="central" font-family="Arial, sans-serif" font-size="12" font-weight="600" fill="#1f2a44">HR users</text>
</g>
<g>
<rect x="220" y="372" width="140" height="44" rx="8" fill="#fdecea" stroke="#c1664f" stroke-width="0.5"/>
<text x="290" y="394" text-anchor="middle" dominant-baseline="central" font-family="Arial, sans-serif" font-size="12" font-weight="600" fill="#1f2a44">System vendors</text>
</g>
<g>
<rect x="420" y="372" width="140" height="44" rx="8" fill="#fdecea" stroke="#c1664f" stroke-width="0.5"/>
<text x="490" y="394" text-anchor="middle" dominant-baseline="central" font-family="Arial, sans-serif" font-size="12" font-weight="600" fill="#1f2a44">Regional HR teams</text>
</g>
<g>
<rect x="600" y="372" width="140" height="44" rx="8" fill="#fdecea" stroke="#c1664f" stroke-width="0.5"/>
<text x="670" y="394" text-anchor="middle" dominant-baseline="central" font-family="Arial, sans-serif" font-size="11" font-weight="600" fill="#1f2a44">Works councils</text>
</g>

<line x1="380" y1="416" x2="380" y2="438" stroke="#1f2a44" stroke-width="1" marker-end="url(#arrow)"/>
<text x="380" y="460" text-anchor="middle" font-family="Arial, sans-serif" font-size="13" font-weight="600" fill="#1f2a44">Employees (end users)</text>
<text x="380" y="480" text-anchor="middle" font-family="Arial, sans-serif" font-size="11" fill="#777">HRIS vendor and external auditors engage at the executive and compliance level (not shown for clarity)</text>
</svg>
